<?xml version="1.0" encoding="UTF-8"?><svg id="Layer_1" xmlns="http://www.w3.org/2000/svg" viewBox="0 0 1011 228"><defs><style>.cls-1{fill:#f9f9f9;}.cls-2{fill:#fbfbfb;}.cls-3{fill:#50c576;}.cls-4{fill:#4fc576;}</style></defs><g><path class="cls-4" d="M424.8,132.61c8.78,9.89,17.01,19.18,25.75,29.03,5.18-11.47,10.04-22.17,14.86-32.89,7.65-17.03,15.34-34.03,22.83-51.13,1.23-2.8,2.73-3.72,5.75-3.74,15.08-.09,15.03-.16,21.3,13.83,10.78,24.06,21.53,48.14,32.51,72.11,1.97,4.3,.86,4.44-3.3,5.07-10.49,1.6-16.91-1.85-19.09-12.45-1.44-7.02-5.62-9.19-12.8-8.67-9.91,.72-19.91,.38-29.86,.09-3.96-.12-6.36,.77-7.63,4.8-1.18,3.73-3.34,7.16-4.6,10.87-1.34,3.93-3.42,5.49-7.81,5.28-8.91-.41-17.86-.25-26.78-.06-3.18,.07-5.37-.74-7.49-3.28-6.36-7.64-13.26-14.85-19.51-22.58-2.79-3.45-5.7-4.7-10.05-4.57-10.39,.3-10.39,.09-10.39,10.7,0,5.49-.1,10.98,.04,16.47,.06,2.45-.81,3.13-3.24,3.26-14.08,.8-14.07,.87-14.07-13.05,0-15.78,.1-31.56-.07-47.34-.04-3.57,.96-4.63,4.59-4.62,12.75,.05,13.02-.08,12.62,12.78-.16,5.14,1.44,6.4,6.3,6.1,6.84-.42,13.73-.03,20.6-.12,8.63-.13,14.21-5.26,14.66-13.32,.45-8.04-4.45-14.06-13-14.92-13.34-1.33-26.76-.51-40.13-.42-4.58,.03-5.81-1.19-5.68-5.72,.3-10.62,.07-10.69,10.51-10.61,12.01,.09,24.03,0,36.02,.51,25.02,1.07,35.5,24.09,26.75,44.16-3.48,7.98-10.42,11.97-19.58,14.42Zm74.79-39.19c-5.13,11.63-9.77,22.16-14.57,33.02h28.99c-4.71-10.79-9.27-21.22-14.42-33.02Z"/><path class="cls-4" d="M558.76,132.11c0-9.43,.11-18.86-.07-28.29-.06-3.15,.93-4.02,4.08-4.06,13.26-.18,13.26-.28,13.26,12.78,0,10.29,.12,20.57-.07,30.86-.06,3.42,.67,5.01,4.48,4.73,6.66-.5,13.36,.49,20.02-.69,14.61-2.57,24.14-15.37,22.38-30.2-2.17-18.34-11.18-26.61-29.83-27.02-9.95-.22-19.91-.15-29.86,.02-3.3,.06-4.44-.89-4.48-4.33-.13-11.95-.26-12.14,11.62-11.9,11.98,.24,24.08-1.41,35.94,.98,18.59,3.76,31.07,17.37,33.37,36.38,2.11,17.48-1.71,33.09-16.25,44.59-7.39,5.85-16.14,8.36-25.38,8.63-11.83,.35-23.68,0-35.52,.17-3,.04-3.79-1.01-3.75-3.84,.14-9.6,.05-19.2,.05-28.8Z"/><path class="cls-1" d="M913.85,102c0,7.71,.05,15.42,0,23.14-.19,26.58-19.25,42.99-45.61,39.29-21.22-2.98-33.95-17.2-34.23-38.71-.22-16.62,.03-33.25-.12-49.87-.03-3.14,.77-4.29,4-4.03,4.23,.35,9.79-1.29,12.4,.84,2.77,2.26,.79,8.02,.83,12.24,.12,13.37-.08,26.74,.08,40.1,.2,16.59,12.03,26.28,28.23,23.37,10.55-1.9,16.86-10.19,17-23,.17-16.11,.22-32.22-.07-48.33-.08-4.38,1.2-5.37,5.4-5.27,12.08,.27,12.08,.08,12.08,12.23,0,6,0,12,0,18Z"/><path class="cls-1" d="M815.25,141.9c-3.27-4.36-6.15-8.38-9.23-12.25-1.37-1.72-.49-3.26-.1-4.84,3.39-13.63-.23-25.18-10.89-34.14-10.06-8.45-21.75-10.02-33.72-4.96-12.85,5.43-19.33,15.86-20.35,29.67-.12,1.68-.1,3.57,.54,5.07,2.71,6.44,.39,11.41-4.03,16.02-1.52,1.59-2.71,3.5-4.08,5.29-12.89-15.99-9.96-43.75,6.2-59.95,17.7-17.75,45.43-19.36,65.01-3.78,19.19,15.27,23.95,42.61,10.64,63.87Z"/><path class="cls-4" d="M782.83,139.35c0,8.03-.12,14.53,.05,21.03,.07,2.85-.99,3.85-3.76,4.2-12.93,1.6-13.82,.88-13.82-12.11,0-3.71,0-7.41,0-11.12-.42-.18-.84-.35-1.26-.53-3.95,4.75-8.15,9.32-11.75,14.32-2.5,3.48-4.42,3.15-7.38,.74-8.48-6.92-8.6-7.14-2.01-15.96,9.54-12.76,19.17-25.45,28.59-38.3,2.16-2.95,3.21-2.77,5.32,.08,10.31,13.89,20.74,27.7,31.34,41.36,2.42,3.12,2.62,5.09-.19,8.15-7.78,8.47-8.58,8.61-15.53-.04-2.86-3.57-5.77-7.1-9.6-11.81Z"/><path class="cls-1" d="M961.74,89.39c-10.96,0-21.92-.14-32.88,.09-3.27,.07-3.93-.94-3.94-4.01-.07-11.89-.18-11.89,11.92-11.89,19.52,0,39.05,.09,58.57-.08,3.58-.03,4.63,.92,4.6,4.55-.1,11.35,.05,11.35-11.54,11.35-8.91,0-17.81,0-26.72,0Z"/><path class="cls-4" d="M323.39,73.95c11.15,0,22.3,.13,33.44-.08,3.42-.06,4.35,1.01,4.37,4.35,.08,11.34,.21,11.34-11.13,11.34-19.72,0-39.45-.11-59.17,.09-3.84,.04-4.92-.95-4.86-4.82,.18-10.87-.01-10.87,11.1-10.87,8.75,0,17.49,0,26.24,0Z"/><path class="cls-1" d="M953.85,132.03c0-9.58,.08-19.17-.05-28.75-.04-2.56,.51-3.45,3.32-3.53,13.94-.4,13.94-.5,13.94,13.5,0,15.74-.08,31.49,.07,47.23,.03,3.25-.68,4.69-4.2,4.27-4.2-.5-9.8,1.76-12.3-.89-2.09-2.22-.72-7.74-.76-11.81-.06-6.67-.02-13.35-.02-20.02Z"/><path class="cls-1" d="M685.36,73.93c10.11,0,20.22,.08,30.32-.06,2.61-.04,3.43,.59,3.5,3.35,.35,13.37,.45,13.37-12.93,13.37-17.13,0-34.26-.07-51.39,.07-3.02,.03-4.06-.53-4.06-3.85,0-12.88-.15-12.88,12.46-12.88,7.37,0,14.73,0,22.1,0Z"/><path class="cls-4" d="M685.64,147.8c9.6,0,19.19,.13,28.79-.07,3.38-.07,4.78,.61,4.77,4.42-.03,12.54,.14,12.54-12.41,12.54-17.14,0-34.27-.1-51.41,.09-3.64,.04-4.57-1.03-4.55-4.59,.06-12.38-.08-12.38,12.19-12.38,7.54,0,15.08,0,22.62,0Z"/><path class="cls-4" d="M332.07,132.28c0,9.41-.08,18.83,.05,28.24,.04,2.89-.45,4.2-3.86,4.27-13.25,.25-13.25,.39-13.25-12.76,0-15.92,.11-31.84-.09-47.75-.05-3.66,1.06-4.55,4.61-4.52,12.54,.08,12.54-.06,12.54,12.5,0,6.68,0,13.35,0,20.03Z"/><path class="cls-4" d="M675.82,127.48c-7.02,0-14.03-.1-21.05,.05-2.79,.06-3.83-.69-3.93-3.69-.43-12.68-.53-12.68,12.26-12.68,11.12,0,22.25,.19,33.37-.1,4-.11,4.82,1.22,4.78,4.92-.12,11.5,.03,11.5-11.57,11.5-4.62,0-9.24,0-13.86,0Z"/></g><g><path class="cls-2" d="M166.41,14.8c11.52-2.14,22.96-2.81,34.31,.04,20.09,5.04,32.47,19.67,35.42,40.97,2.68,19.31-2.23,37.04-11.18,53.78-15.11,28.26-34.98,52.74-59.81,73.11-1.28,1.05-1.85,.99-2.78-.24-4.15-5.52-8.29-11.06-12.61-16.45-1.42-1.78-.31-2.35,.83-3.27,8.59-6.87,16.44-14.53,23.66-22.83,1.07-1.23,2.11-2.5,3.32-3.93-1.53-.2-2.29-.86-2.58-2.22-2.13-10.18-4.28-20.36-6.53-30.52-.45-2.03,.78-2.12,2.1-2.48,10.76-2.99,21.5-6.02,32.26-9,1.09-.3,2-.49,2.47-1.77,5.22-14.4,7.76-29.04,3.54-44.15-4.97-17.78-19.38-29.01-38.06-30.02-1.42-.08-3.08,.56-4.37-1Z"/><path class="cls-2" d="M204.97,65.44c-6.78-22.95-25.83-27.25-41.29-25.55-20.6,2.26-38.14,11.6-54.25,24.06-2.86,2.21-7.16,4.28-7.84,7.12-.7,2.92,4.69,4.3,6.78,7.57-12.27,3.47-24.49,6.93-37.07,10.49,1.65-12.93,3.25-25.48,4.93-38.61,2.44,2.07,4.6,3.69,6.49,5.59,1.66,1.66,2.74,1.9,4.72,.16,13.52-11.87,28.33-21.72,45.28-28.07,14.31-5.36,28.93-8.17,44.11-4.37,15.49,3.87,26.06,16.34,27.65,32.27,.28,2.83,.75,5.66,.47,9.36Z"/><path class="cls-3" d="M32.47,161.38c7.48,25.54,27.97,32.94,49.04,31.55,12.18-.8,23.67-4.38,34.83-9.16,2.18-.93,2.99-1.79,1.33-3.97-1.31-1.72-2.26-3.7-3.69-6.09,13.48,.57,26.44,1.13,39.98,1.7-5.75,12.06-11.35,23.79-17.04,35.71-2-1.78-2.96-4.03-4.07-6.09-.96-1.79-1.87-1.89-3.6-1.1-10.84,4.92-22.11,8.51-33.96,9.97-15.64,1.93-30.76,.7-44.11-8.8-10.97-7.81-16.19-19.02-18.18-31.99-.55-3.58-.82-7.19-.54-11.73Z"/><path class="cls-3" d="M96.61,183.43c-18.29,4.22-37.86,1.57-48.75-12.63-6.78-8.83-7.69-19.14-6.65-29.77,1.61-16.41,8.1-31.33,14.44-46.27,2.89-6.8,2.87-6.69,9.97-4.09,9.07,3.32,17.79,7.46,26.76,11.02,2.04,.81,2.33,1.76,1.43,3.71-4.27,9.26-8.46,18.55-12.58,27.88-.72,1.62-1.48,1.85-2.98,1.15-3.97-1.84-8.06-3.45-11.95-5.45-1.67-.85-1.9-.08-2.18,1.08-3.04,12.66-4.93,25.3,1.45,37.58,1.57,3.02,4.06,5.35,6.64,7.48,5.49,4.51,11.83,7.03,18.93,7.63,1.62,.14,3.23,.4,5.46,.68Z"/><path class="cls-3" d="M157.03,138.83c-1.15,.89-.08,1.52,.35,2.05,1.73,2.09,3.13,4.28,.64,6.59-2.38,2.2-4.84,1.3-7.1-.47-.34-.27-.71-.5-1.07-.74-.95-1.24-1.71-2.66-3.26-3.31-.23-.23-.46-.46-.68-.69-.16-.28-.32-.55-.47-.83-.22-.22-.44-.45-.66-.67-.2-.22-.39-.44-.59-.67-.44-.47-.69-1.63-1.53-.86-.35,.33,.49,1,1.07,1.29,.22,.22,.45,.43,.67,.65,.22,.22,.44,.44,.66,.66,.23,.21,.46,.42,.69,.63,.22,.22,.43,.44,.65,.66,.57,1.53,1.89,2.47,2.9,3.66,1.3,2.15,1.76,4.28-.41,6.16-2.76,2.4-5.25,.92-7.7-.67-.22-.22-.44-.44-.65-.66-.22-.22-.44-.44-.66-.66-.22-.22-.44-.44-.66-.66-.22-.22-.44-.44-.66-.66-.22-.22-.44-.44-.66-.66-.52-1.02-1.33-1.74-2.33-2.26-.23-.23-.45-.46-.68-.69-.37-.51-.66-1.19-1.49-.65,.37,.35,.74,.7,1.1,1.06,.22,.22,.44,.44,.66,.65,.5,1.03,1.37,1.68,2.32,2.25,.22,.22,.44,.44,.66,.66,.22,.22,.44,.44,.66,.66,.22,.22,.44,.44,.66,.66,.22,.22,.45,.45,.67,.67,.23,.23,.46,.46,.69,.69,1.12,1.83,1.61,3.76-.14,5.39-2.12,1.97-4.28,.69-6.35-.38-.83,4.15-2.61,4.78-7.08,2.54,.08-.42,.25-.84,.24-1.25-.06-2.65,.35-5.72-4.04-4.64-1.27,.31-1.27-.68-1.54-1.54-1.05-3.32-3.04-4.34-6.51-3.25-1.14,.36-1.41,.37-1.94-.94-1.67-4.12-3.38-4.93-7.58-3.5-1.56,.53-1.97,.03-2.59-1.05-2.53-4.44-2.94-4.56-7.37-2.45-3.89-2.41-7.51-5.27-11.8-6.98-1.48-.59-1.34-1.48-.83-2.6,3.83-8.37,7.69-16.73,11.48-25.12,.81-1.78,1.95-1.98,3.38-.96,3.36,2.37,6.73,1.84,10.32,.49,4.82-1.81,9.75-3.32,14.63-4.97,2.36-.8,4.66-.93,7.17,.79-3.37,2.33-7.03,3.38-10.58,4.53-3.09,1-5.42,2.63-7.11,5.43-1.36,2.25-3.09,4.26-4.62,6.41-2.53,3.56-1.72,5.77,2.52,6.94,3.07,.85,5.87-.28,6.61-2.66,.13,.04,.18,.13,.16,.27,1.5,0,2.67-.28,2.06-2.23,.14-.99,.88-1.37,1.7-1.68,.29,.76,.87,.66,1.21,.19,1.65-2.29,4.04-2.03,6.44-2.15,2.8-.14,5.5,.42,8.25,.67,1.99,1.31,3.64,2.96,4.96,4.96-1.19,.83-.21,1.52,.26,2.02,3.88,4.07,7.81,8.1,11.75,12.12,.33,.34,.85,.8,1.19-.07l.08,.08c-.26,1.66,.25,2.17,1.91,1.91v-.17Zm-27.06,14.77c-.21,.44-.1,.6,.39,.45-.15-.13-.3-.27-.45-.4-.22-.22-.44-.43-.67-.65-.19-.53-.52-.92-1.09-1.05-.02,0-.21,.35-.15,.47,.26,.55,.7,.76,1.3,.53-.09,.54,.12,.78,.67,.66Zm-3.34-2.6l.35,.47c.08-.13,.16-.25,.24-.38-.19-.04-.38-.08-.57-.12,.18-.48-.12-.68-.49-.85-.22-.09-.44-.18-.66-.27-.14,.4,.14,.47,.42,.53,.23,.2,.47,.41,.7,.61Zm16.29-11.77c-1.27-2.48-2.59-3.55-4.14-4.39,.76,1.61,1.81,2.94,4.14,4.39Z"/><path class="cls-2" d="M141.84,122.94c-1.31-1.99-2.97-3.64-4.96-4.96-1.18-1.84-2.78-2.46-4.99-2.09-1.69,.28-3.47,.28-5.18,.12-2.74-.25-4.56,.86-5.73,3.26-.82,.3-1.56,.69-1.7,1.68-.85,.59-2.22,.7-2.06,2.23,.02-.14-.03-.23-.16-.27-2.25,.62-4.28,2.16-6.89,1.13-2.1-.83-2.93-1.98-1.56-3.93,4.04-5.77,7.88-11.09,15.43-13.72,7.99-2.78,15.3-3.49,23.32-1.33,5.75,1.55,11.57-.11,17.27-1.1,2.3-.4,2.8,.28,3.21,2.26,1.73,8.36,3.56,16.7,5.44,25.03,.33,1.49,.13,2.38-1.51,2.46-4.1,.2-7.22,2.39-10.04,5.04-1.65,1.55-3.09,1.61-4.69,.09,0,0,0,.17,0,.17-.02-1.26-.82-1.73-1.91-1.91,0,0-.08-.08-.08-.08-3.88-5.18-8.61-9.55-13.2-14.06Z"/><path class="cls-2" d="M95.9,141.6c4.44-2.11,4.84-1.98,7.37,2.45,.62,1.08,1.03,1.58,2.59,1.05,4.2-1.43,5.91-.62,7.58,3.5,.53,1.31,.8,1.29,1.94,.94,3.48-1.09,5.46-.07,6.51,3.25,.27,.86,.27,1.85,1.54,1.54,4.39-1.08,3.98,1.99,4.04,4.64,0,.41-.15,.83-.24,1.25q-4.24,3.29-9.15-.36c-.87-.65-1.66,.02-2.49,.04-3.9,.11-5.76-1.64-5.62-5.3,.15-.31,.5-.66-.05-.89-.1-.04-.36,.3-.55,.47-4.26,1.88-7.49,.54-8.33-3.92-.37-1.96-1.28-1.16-2.22-1.19-2.17-.07-3.74-1.28-4.67-3.08-1.01-1.95,.24-3.29,1.74-4.39Z"/><path class="cls-3" d="M141.84,122.94c4.59,4.51,9.32,8.89,13.2,14.06-.34,.87-.86,.41-1.19,.07-3.94-4.02-7.87-8.04-11.75-12.12-.47-.5-1.45-1.19-.26-2.02Z"/><path class="cls-3" d="M120.99,119.27c1.17-2.39,2.99-3.51,5.73-3.26,1.71,.16,3.49,.16,5.18-.12,2.2-.37,3.8,.25,4.99,2.09-2.75-.24-5.45-.81-8.25-.67-2.4,.12-4.79-.14-6.44,2.15-.34,.46-.92,.57-1.21-.19Z"/><path class="cls-3" d="M142.91,139.23c-2.33-1.45-3.37-2.78-4.14-4.39,1.54,.84,2.86,1.9,4.14,4.39Z"/><path class="cls-3" d="M146.59,142.93c1.55,.65,2.31,2.07,3.26,3.31-.19,.17-.37,.35-.56,.52-1.01-1.19-2.33-2.13-2.9-3.66,0,0,.21-.18,.21-.18Z"/><path class="cls-3" d="M117.23,123.18c-.16-1.52,1.21-1.64,2.06-2.23,.61,1.94-.57,2.23-2.06,2.23Z"/><path class="cls-3" d="M155.12,137.08c1.09,.18,1.9,.65,1.91,1.91-1.66,.26-2.17-.25-1.91-1.91Z"/><path class="cls-3" d="M135.56,146.7c.99,.53,1.81,1.25,2.32,2.27-.14,.12-.28,.24-.42,.36-.95-.57-1.82-1.22-2.32-2.25,.14-.12,.28-.25,.41-.38Z"/><path class="cls-3" d="M143.72,140.5c-.58-.29-1.42-.96-1.07-1.29,.84-.78,1.09,.39,1.53,.86-.17,.13-.32,.27-.46,.43Z"/><path class="cls-3" d="M129.3,152.94c-.6,.23-1.04,.02-1.3-.53-.05-.11,.13-.47,.15-.47,.57,.13,.9,.52,1.09,1.05,0,0,.06-.05,.06-.05Z"/><path class="cls-3" d="M134.49,146.43l-1.1-1.06c.83-.54,1.12,.14,1.49,.65-.14,.13-.26,.26-.38,.41Z"/><path class="cls-3" d="M144.18,140.07c.2,.22,.39,.44,.59,.67-.13,.13-.26,.27-.38,.42-.22-.22-.45-.43-.67-.65,.14-.16,.29-.31,.46-.43Z"/><path class="cls-3" d="M145.04,141.81c-.22-.22-.44-.44-.66-.66,.12-.14,.25-.28,.38-.42,.22,.22,.44,.45,.66,.67-.14,.13-.26,.26-.38,.41Z"/><path class="cls-3" d="M145.43,141.41c.16,.28,.32,.55,.47,.83l-.17,.21c-.23-.21-.46-.42-.69-.63,.12-.14,.25-.28,.38-.41Z"/><path class="cls-3" d="M145.9,142.24c.23,.23,.45,.46,.68,.69,0,0-.2,.17-.2,.17-.22-.22-.43-.44-.65-.66,0,0,.17-.21,.17-.21Z"/><path class="cls-3" d="M134.88,146.02c.23,.23,.45,.46,.68,.69-.13,.13-.27,.26-.41,.38-.22-.22-.44-.44-.66-.65,.12-.14,.25-.28,.38-.41Z"/><path class="cls-3" d="M137.88,148.97c.22,.22,.44,.44,.66,.66-.14,.12-.28,.24-.42,.36-.22-.22-.44-.44-.66-.66,.13-.12,.27-.24,.42-.36Z"/><path class="cls-3" d="M125.92,150.38c-.29-.06-.56-.14-.42-.53,.22,.09,.44,.18,.66,.27-.08,.09-.16,.18-.24,.26Z"/><path class="cls-3" d="M138.54,149.63c.22,.22,.44,.44,.66,.66-.14,.12-.28,.24-.42,.37-.22-.22-.44-.44-.66-.66,.13-.12,.27-.24,.42-.36Z"/><path class="cls-3" d="M126.62,151c-.23-.2-.47-.41-.7-.61,.08-.09,.16-.17,.24-.26,.37,.17,.67,.37,.49,.85l-.02,.03Z"/><path class="cls-3" d="M139.2,150.29c.22,.22,.44,.44,.66,.66-.14,.12-.28,.24-.42,.37-.22-.22-.44-.44-.66-.66,.13-.12,.27-.25,.42-.36Z"/><path class="cls-3" d="M126.65,150.97c.19,.04,.38,.08,.57,.12-.08,.13-.16,.25-.24,.38-.12-.16-.24-.31-.35-.47,0,0,.02-.03,.02-.03Z"/><path class="cls-3" d="M139.86,150.95c.22,.22,.44,.44,.66,.66-.14,.12-.28,.24-.41,.37-.22-.22-.45-.45-.67-.67,.13-.12,.27-.25,.42-.36Z"/><path class="cls-3" d="M140.52,151.61c.22,.22,.44,.44,.65,.66-.12,.14-.24,.27-.37,.4-.23-.23-.46-.46-.69-.69,.13-.13,.26-.25,.41-.37Z"/><path class="cls-3" d="M129.97,153.6c-.56,.12-.76-.11-.67-.66,0,0-.06,.05-.06,.05,.22,.22,.44,.43,.67,.65,0,0,.06-.04,.06-.04Z"/><path class="cls-3" d="M129.91,153.64c.15,.13,.3,.27,.45,.4-.48,.15-.6,0-.38-.45,0,0-.06,.04-.06,.04Z"/></g></svg>